<svg xmlns="http://www.w3.org/2000/svg" viewBox="1746.3 587 195.7 205.403"><defs><style>.a{fill:#eaeaea;}</style></defs><g transform="translate(1732 581.946)"><path class="a" d="M19.225,8.355C55.612,20.682,81.056,49.9,102.943,75.7a505.171,505.171,0,0,1,56.086,80.582c7.934,14.153,15.047,28.763,21.887,43.373-1.368-.913-2.736-1.6-3.283-2.055-5.472-2.739-10.944-5.707-16.415-8.446-11.764-6.164-22.982-12.784-34.2-19.175-1.094-.685-9.028-2.968-6.019,0a27.335,27.335,0,0,0,2.736,2.511,13.984,13.984,0,0,0,3.009,1.37c10.123,6.62,20.793,12.555,31.736,18.262,6.566,3.652,13.406,7.077,20.246,10.5,1.642.913,3.557,1.826,5.2,2.739.821,2.055,4.377,3.2,6.566,3.881.547.228,3.83.913,4.925.457.547.228,1.368.228,1.915.457,6.566,1.141,10.123-.913,11.764-6.392s.547-11.642.547-17.349c-.274-13.925-.821-27.85-2.189-42-.274-2.739-11.491-6.392-11.491-3.424-.274,10.729-.274,21.23.274,31.959.274,5.479.547,10.729.547,16.208.274,3.652,1.642,12.1-2.736,14.61h-.274c-12.312-29.9-29.274-58.439-48.425-85.6-20.519-28.306-43.774-57.069-71.68-80.81C57.8,23.65,39.47,12.464,18.13,5.616c-.821-.228-3.83-1.141-3.83,0S18.4,8.127,19.225,8.355Z" transform="translate(0 0)"/></g></svg>