<svg xmlns="http://www.w3.org/2000/svg" viewBox="15696.943 891.08 15.973 16.292"><defs><style>.a{fill:#ccc;}</style></defs><g transform="translate(15351 173.114)"><path class="a" d="M1.173-.055,13.825.057A1.059,1.059,0,0,1,14.943,1.2a1.326,1.326,0,0,1-1.227,1.25L1.063,2.334A1.059,1.059,0,0,1-.055,1.2,1.326,1.326,0,0,1,1.173-.055Z" transform="translate(349.62 732.489) rotate(-45)"/><path class="a" d="M1.136-.055,13.858.057A1.044,1.044,0,0,1,14.943,1.2a1.308,1.308,0,0,1-1.191,1.25L1.03,2.334A1.044,1.044,0,0,1-.055,1.2,1.308,1.308,0,0,1,1.136-.055Z" transform="translate(346.021 728.572) rotate(-45)"/></g></svg>