<?xml version="1.0" encoding="utf-8"?>
<!-- Generator: Adobe Illustrator 17.0.0, SVG Export Plug-In . SVG Version: 6.00 Build 0)  -->
<!DOCTYPE svg PUBLIC "-//W3C//DTD SVG 1.1//EN" "http://www.w3.org/Graphics/SVG/1.1/DTD/svg11.dtd">
<svg version="1.1" xmlns="http://www.w3.org/2000/svg" xmlns:xlink="http://www.w3.org/1999/xlink" x="0px" y="0px" width="96px"
	 height="96px" viewBox="0 0 96 96" enable-background="new 0 0 96 96" xml:space="preserve">
<g id="Base" display="none">
</g>
<g id="Dibujo">
	<path fill="#CCD" d="M66,40c-0.508,0-1.112,0.079-1.689,0.184C62.218,33.012,55.663,28,48,28c-7.664,0-14.219,5.012-16.312,12.184
		C31.112,40.079,30.507,40,30,40c-6.065,0-11,4.935-11,11s4.935,11,11,11h11.263l-3.927,5.891c-0.409,0.613-0.447,1.402-0.1,2.053
		C37.585,70.594,38.263,71,39,71h2.263l-3.927,5.891c-0.612,0.919-0.364,2.161,0.555,2.773C38.231,79.892,38.617,80,38.998,80
		c0.646,0,1.28-0.313,1.666-0.891l6-9c0.409-0.613,0.447-1.402,0.1-2.053C46.415,67.406,45.737,67,45,67h-2.263l3.333-5h5.192
		l-1.927,2.891c-0.409,0.613-0.447,1.402-0.1,2.053C49.585,67.594,50.263,68,51,68h2.263l-1.927,2.891
		c-0.612,0.919-0.364,2.161,0.555,2.773C52.231,73.892,52.617,74,52.998,74c0.646,0,1.28-0.313,1.666-0.891l4-6
		c0.409-0.613,0.447-1.402,0.1-2.053C58.415,64.406,57.737,64,57,64h-2.263l1.333-2H66c6.065,0,11-4.935,11-11S72.065,40,66,40z
		 M66,58H30c-3.859,0-7-3.141-7-7s3.141-7,7-7c0.277,0,0.723,0.068,1.193,0.162V46c0,1.104,0.895,2,2,2s2-0.896,2-2v-3.219
		C36.266,36.528,41.629,32,48,32c6.37,0,11.733,4.528,12.807,10.782V46c0,1.104,0.896,2,2,2s2-0.896,2-2v-1.837
		C65.277,44.069,65.726,44,66,44c3.859,0,7,3.141,7,7S69.859,58,66,58z"/>
</g>
</svg>
