<svg xmlns="http://www.w3.org/2000/svg" viewBox="2921 517 47.911 48"><defs><style>.a{fill:#9381ff;}</style></defs><g transform="translate(2915 511)"><g transform="translate(6 5)"><path class="a" d="M19.084,958.362a1.089,1.089,0,0,0-1.089,1.089v6.669l2.178.017v-6.686A1.089,1.089,0,0,0,19.084,958.362Zm21.778,0a1.089,1.089,0,0,0-1.089,1.089v6.669l2.178.017v-6.686A1.089,1.089,0,0,0,40.861,958.362Zm-29.4,3.267A5.475,5.475,0,0,0,6,967.09v33.81a5.475,5.475,0,0,0,5.461,5.462H48.45a5.475,5.475,0,0,0,5.461-5.462V967.09a5.475,5.475,0,0,0-5.461-5.462H36.489a1.089,1.089,0,1,0,0,2.178H48.45a3.257,3.257,0,0,1,3.284,3.284V972.7H8.178V967.09a3.257,3.257,0,0,1,3.284-3.284H24.07a1.089,1.089,0,1,0,0-2.178H11.461Zm11.961,0a1.089,1.089,0,0,0-1.089,1.089l.464.892.625.2H36.489a1.089,1.089,0,1,0,0-2.178H23.422ZM8.178,974.873H51.733V1000.9a3.257,3.257,0,0,1-3.284,3.284H11.461a3.256,3.256,0,0,1-3.284-3.284Z" transform="translate(-6 -957.362)"/></g></g></svg>