<?xml version="1.0" encoding="UTF-8" standalone="no"?>
<svg
   xmlns:dc="http://purl.org/dc/elements/1.1/"
   xmlns:cc="http://creativecommons.org/ns#"
   xmlns:rdf="http://www.w3.org/1999/02/22-rdf-syntax-ns#"
   xmlns:svg="http://www.w3.org/2000/svg"
   xmlns="http://www.w3.org/2000/svg"
   xmlns:sodipodi="http://sodipodi.sourceforge.net/DTD/sodipodi-0.dtd"
   xmlns:inkscape="http://www.inkscape.org/namespaces/inkscape"
   version="1.1"
   x="0px"
   y="0px"
   viewBox="0 0 1024 910"
   enable-background="new 0 0 2000 2000"
   xml:space="preserve"
   id="svg2"
   inkscape:version="0.91 r13725"
   sodipodi:docname="calendar.svg"
   width="1024"
   height="910"><metadata
     id="metadata14"><rdf:RDF><cc:Work
         rdf:about=""><dc:format>image/svg+xml</dc:format><dc:type
           rdf:resource="http://purl.org/dc/dcmitype/StillImage" /><dc:title></dc:title></cc:Work></rdf:RDF></metadata><defs
     id="defs12" /><sodipodi:namedview
     pagecolor="#ffffff"
     bordercolor="#666666"
     borderopacity="1"
     objecttolerance="10"
     gridtolerance="10"
     guidetolerance="10"
     inkscape:pageopacity="0"
     inkscape:pageshadow="2"
     inkscape:window-width="1687"
     inkscape:window-height="1013"
     id="namedview10"
     showgrid="false"
     inkscape:zoom="0.20016325"
     inkscape:cx="531.23169"
     inkscape:cy="589.5188"
     inkscape:window-x="0"
     inkscape:window-y="0"
     inkscape:window-maximized="0"
     inkscape:current-layer="svg2" /><path
     style="fill:#ffffff;fill-opacity:1"
     d="m 222.19108,0.91700234 c -25.13778,0 -45.45657,20.36311966 -45.45657,45.45462966 l 0,30.31818 -131.276982,0 C 20.319751,76.689812 0,97.052932 0,122.14445 L 0,864.5425 C 0,889.635 20.319751,910 45.457528,910 l 933.087742,0 C 1003.6368,910 1024,889.635 1024,864.5425 l 0,-742.39805 c 0,-25.091518 -20.3179,-45.454638 -45.45473,-45.454638 l -131.32706,0 0,-30.31818 c 0,-25.09151 -20.31975,-45.45462966 -45.45753,-45.45462966 -25.13681,0 -45.45656,20.36311966 -45.45656,45.45462966 l 0,30.31818 -488.65262,0 0,-30.31818 c 0,-25.09151 -20.32361,-45.45462966 -45.46042,-45.45462966 z M 90.869758,167.60196 l 85.864752,0 0,30.27675 c 0,25.09151 20.31879,45.45656 45.45657,45.45656 25.13681,0 45.46042,-20.36505 45.46042,-45.45656 l 0,-30.27675 488.65262,0 0,30.27675 c 0,25.09151 20.31975,45.45656 45.45656,45.45656 25.13778,0 45.45753,-20.36505 45.45753,-45.45656 l 0,-30.27675 85.82139,0 0,177.3735 -842.169842,0 0,-177.3735 z m 0,222.83005 842.169842,0 0,428.65389 -842.169842,0 0,-428.65389 z"
     id="path4"
     inkscape:connector-curvature="0" /><text
     x="0"
     y="689.19244"
     font-size="5px"
     font-weight="bold"
     id="text6"
     style="font-weight:bold;font-size:5px;font-family:'Helvetica Neue', Helvetica, Arial-Unicode, Arial, Sans-serif;fill:#000000">Created by logan</text>
<text
     x="0"
     y="694.19244"
     font-size="5px"
     font-weight="bold"
     id="text8"
     style="font-weight:bold;font-size:5px;font-family:'Helvetica Neue', Helvetica, Arial-Unicode, Arial, Sans-serif;fill:#000000">from the Noun Project</text>
</svg>