<?xml version="1.0" encoding="UTF-8" standalone="no"?>
<svg
   xmlns:dc="http://purl.org/dc/elements/1.1/"
   xmlns:cc="http://creativecommons.org/ns#"
   xmlns:rdf="http://www.w3.org/1999/02/22-rdf-syntax-ns#"
   xmlns:svg="http://www.w3.org/2000/svg"
   xmlns="http://www.w3.org/2000/svg"
   xmlns:sodipodi="http://sodipodi.sourceforge.net/DTD/sodipodi-0.dtd"
   xmlns:inkscape="http://www.inkscape.org/namespaces/inkscape"
   version="1.1"
   x="0px"
   y="0px"
   viewBox="0 0 88 58"
   enable-background="new 0 0 100 100"
   xml:space="preserve"
   id="svg2"
   inkscape:version="0.91 r13725"
   sodipodi:docname="email.svg"
   width="88"
   height="58"><metadata
     id="metadata14"><rdf:RDF><cc:Work
         rdf:about=""><dc:format>image/svg+xml</dc:format><dc:type
           rdf:resource="http://purl.org/dc/dcmitype/StillImage" /><dc:title></dc:title></cc:Work></rdf:RDF></metadata><defs
     id="defs12" /><sodipodi:namedview
     pagecolor="#ffffff"
     bordercolor="#666666"
     borderopacity="1"
     objecttolerance="10"
     gridtolerance="10"
     guidetolerance="10"
     inkscape:pageopacity="0"
     inkscape:pageshadow="2"
     inkscape:window-width="1680"
     inkscape:window-height="1005"
     id="namedview10"
     showgrid="false"
     inkscape:zoom="1.888"
     inkscape:cx="50"
     inkscape:cy="62.5"
     inkscape:window-x="0"
     inkscape:window-y="1"
     inkscape:window-maximized="1"
     inkscape:current-layer="svg2" /><path
     d="m 78.454878,0.183687 -68.9097556,0 C 4.2822433,0.183687 0,4.46593 0,9.728809 L 0,48.45488 C 0,53.71776 4.2822433,58 9.5451224,58 L 78.454878,58 C 83.717757,58 88,53.71776 88,48.45488 L 88,9.728809 C 88,4.464925 83.717757,0.183687 78.454878,0.183687 Z m -68.9097556,5.023748 68.9097556,0 c 2.492784,0 4.521373,2.02859 4.521373,4.521374 l 0,4.751461 -33.622944,23.46493 c -0.735477,0.53854 -3.112715,1.93715 -5.249818,1.93715 -2.966021,0 -5.004658,-1.63975 -5.007672,-1.64176 L 5.0237486,14.759591 l 0,-5.030782 c 0,-2.493789 2.0285897,-4.521374 4.5213738,-4.521374 z m 68.9097556,47.767815 -68.9097556,0 c -2.4927841,0 -4.5213738,-2.02859 -4.5213738,-4.52138 l 0,-27.596453 30.9362444,21.307723 c 0.686244,0.5486 3.704512,2.74096 8.143496,2.74096 4.185788,0 7.837048,-2.6244 8.178663,-2.87961 l 30.694099,-21.420261 0,27.849651 c 0,2.49178 -2.028589,4.51937 -4.521373,4.51937 z"
     id="path4"
     inkscape:connector-curvature="0"
     style="fill:#ffffff;fill-opacity:1" /></svg>