<svg xmlns="http://www.w3.org/2000/svg" viewBox="2545 516 64.077 49"><defs><style>.a{fill:#9381ff;}</style></defs><g transform="translate(2543 506)"><path class="a" d="M56.654,59H11.423A9.423,9.423,0,0,1,2,49.577V19.423A9.423,9.423,0,0,1,11.423,10H56.654a9.423,9.423,0,0,1,9.423,9.423V49.577A9.423,9.423,0,0,1,56.654,59ZM11.423,13.769a5.654,5.654,0,0,0-5.654,5.654V49.577a5.654,5.654,0,0,0,5.654,5.654H56.654a5.654,5.654,0,0,0,5.654-5.654V19.423a5.654,5.654,0,0,0-5.654-5.654Z" transform="translate(0 0)"/><path class="a" d="M34.692,36.875a1.885,1.885,0,0,1-1.131-.377L14.084,21.892a1.885,1.885,0,1,1,2.262-3.015L34.692,32.635,52.6,19.2a1.885,1.885,0,1,1,2.262,3.015L35.823,36.5A1.885,1.885,0,0,1,34.692,36.875Z" transform="translate(-0.654 -0.49)"/></g></svg>