<?xml version="1.0" encoding="UTF-8" standalone="no"?>
<svg
   xmlns:dc="http://purl.org/dc/elements/1.1/"
   xmlns:cc="http://creativecommons.org/ns#"
   xmlns:rdf="http://www.w3.org/1999/02/22-rdf-syntax-ns#"
   xmlns:svg="http://www.w3.org/2000/svg"
   xmlns="http://www.w3.org/2000/svg"
   xmlns:sodipodi="http://sodipodi.sourceforge.net/DTD/sodipodi-0.dtd"
   xmlns:inkscape="http://www.inkscape.org/namespaces/inkscape"
   version="1.1"
   x="0px"
   y="0px"
   viewBox="0 0 68 68"
   id="svg2"
   inkscape:version="0.91 r13725"
   sodipodi:docname="rss.svg"
   width="68"
   height="68">
  <metadata
     id="metadata16">
    <rdf:RDF>
      <cc:Work
         rdf:about="">
        <dc:format>image/svg+xml</dc:format>
        <dc:type
           rdf:resource="http://purl.org/dc/dcmitype/StillImage" />
        <dc:title></dc:title>
      </cc:Work>
    </rdf:RDF>
  </metadata>
  <defs
     id="defs14" />
  <sodipodi:namedview
     pagecolor="#ffffff"
     bordercolor="#666666"
     borderopacity="1"
     objecttolerance="10"
     gridtolerance="10"
     guidetolerance="10"
     inkscape:pageopacity="0"
     inkscape:pageshadow="2"
     inkscape:window-width="1689"
     inkscape:window-height="1008"
     id="namedview12"
     showgrid="false"
     inkscape:zoom="3.776"
     inkscape:cx="-10.034802"
     inkscape:cy="86.368688"
     inkscape:window-x="-2"
     inkscape:window-y="0"
     inkscape:window-maximized="0"
     inkscape:current-layer="svg2" />
  <path
     inkscape:connector-curvature="0"
     id="path6"
     overflow="visible"
     display="inline"
     visibility="visible"
     d="m 0,-5e-5 0,12 6,0 c 27.68539,0 50,22.31455 50,50.00005 l 0,6 12,0 0,-6 C 68,27.82926 40.17063,-5e-5 6,-5e-5 l -6,0 z m 0,18 0,12 6,0 c 17.74421,0 32,14.25575 32,32.00005 l 0,6 12,0 0,-6 C 50,37.7704 30.22945,17.99995 6,17.99995 l -6,0 z M 14,40 C 6.26797,40 0,46.2681 0,54 0,61.7322 6.26797,68 14,68 21.73195,68 28,61.7322 28,54 28,46.2681 21.73195,40 14,40 Z"
     style="color:#000000;text-indent:0;text-transform:none;direction:ltr;block-progression:tb;baseline-shift:baseline;display:inline;overflow:visible;visibility:visible;fill:#ffffff;fill-opacity:1;stroke:none;marker:none;enable-background:accumulate" />
</svg>
