<svg xmlns="http://www.w3.org/2000/svg" viewBox="2735.001 516.084 52.499 49"><defs><style>.a{fill:#9381ff;}</style></defs><g transform="translate(2720.543 502)"><path class="a" d="M38.476,45.235c-10.317-9.109-19.788-8.916-20.182-8.891a3.923,3.923,0,0,0-3.835,4.022,3.966,3.966,0,0,0,4.011,3.856h.038c.224,0,6.9.066,14.687,6.945,7.71,6.809,8.4,13.641,8.429,13.994A4,4,0,0,0,45.6,68.882c.081,0,.165,0,.249,0a3.988,3.988,0,0,0,3.737-4.224C49.56,64.241,48.841,54.39,38.476,45.235Z" transform="translate(0 -5.8)"/><path class="a" d="M66.977,58.007c-.041-.635-1.14-15.736-17.309-30.015-16.116-14.226-30.65-13.925-31.242-13.9a3.99,3.99,0,0,0,.259,7.975c.123,0,11.937-.239,25.7,11.91C57.89,45.9,58.969,57.942,59.012,58.516a3.993,3.993,0,0,0,3.978,3.725c.081,0,.164-.005.248-.008A3.99,3.99,0,0,0,66.977,58.007Z" transform="translate(-0.028 0)"/><path class="a" d="M25.456,58.613v-.05s.077.022,0,.022,0-.023,0-.023v.051a7.794,7.794,0,0,0,0,15.545v.055c0-.007-.074-.023,0-.03s0,.024,0,.03v-.055a7.794,7.794,0,0,0,0-15.545Z" transform="translate(-0.985 -11.59)"/></g></svg>