<svg xmlns="http://www.w3.org/2000/svg" xmlns:xlink="http://www.w3.org/1999/xlink" viewBox="3104 517 50.639 49"><defs><style>.a{fill:url(#a);}</style><linearGradient id="a" x1="2.338" y1="-1.861" x2="0.036" y2="2.312" gradientUnits="objectBoundingBox"><stop offset="0" stop-color="#9381ff"/><stop offset="1" stop-color="#9381ff"/></linearGradient></defs><g transform="translate(3096.605 508.274)"><path class="a" d="M25.48,39.192l-9.747,8.7L10.39,42.546a1.781,1.781,0,0,0-2.517,2.517l6.53,6.53a1.781,1.781,0,0,0,2.446.071l11.006-9.795A1.783,1.783,0,0,0,25.48,39.21Z" transform="translate(0 -12.204)"/><path class="a" d="M73.567,46.91H51.781a1.781,1.781,0,0,0,0,3.562H73.567a1.781,1.781,0,0,0,0-3.562Z" transform="translate(-17.314 -15.517)"/><path class="a" d="M15.661,82.121a1.781,1.781,0,0,0,1.187-.451l11.006-9.8A1.783,1.783,0,1,0,25.48,69.21l-9.747,8.679L10.39,72.546a1.781,1.781,0,0,0-2.517,2.517l6.53,6.53a1.781,1.781,0,0,0,1.258.528Z" transform="translate(0 -24.395)"/><path class="a" d="M73.567,76.91H51.781a1.781,1.781,0,0,0,0,3.562H73.567a1.781,1.781,0,0,0,0-3.562Z" transform="translate(-17.314 -27.709)"/><path class="a" d="M28,9.322a1.781,1.781,0,0,0-2.517-.142l-9.747,8.7L10.39,12.533A1.781,1.781,0,0,0,7.873,15.05l6.53,6.53a1.781,1.781,0,0,0,2.446.071l11.006-9.795A1.781,1.781,0,0,0,28,9.322Z" transform="translate(0)"/><path class="a" d="M73.567,16.91H51.781a1.781,1.781,0,0,0,0,3.562H73.567a1.781,1.781,0,0,0,0-3.562Z" transform="translate(-17.314 -3.326)"/></g></svg>