<?xml version="1.0" encoding="UTF-8" standalone="no"?>
<svg
   xmlns:dc="http://purl.org/dc/elements/1.1/"
   xmlns:cc="http://creativecommons.org/ns#"
   xmlns:rdf="http://www.w3.org/1999/02/22-rdf-syntax-ns#"
   xmlns:svg="http://www.w3.org/2000/svg"
   xmlns="http://www.w3.org/2000/svg"
   xmlns:sodipodi="http://sodipodi.sourceforge.net/DTD/sodipodi-0.dtd"
   xmlns:inkscape="http://www.inkscape.org/namespaces/inkscape"
   version="1.1"
   x="0px"
   y="0px"
   viewBox="0 0 46 45"
   enable-background="new 0 0 47 47"
   xml:space="preserve"
   id="svg2"
   inkscape:version="0.91 r13725"
   sodipodi:docname="tasks.svg"
   width="46"
   height="45"><metadata
     id="metadata24"><rdf:RDF><cc:Work
         rdf:about=""><dc:format>image/svg+xml</dc:format><dc:type
           rdf:resource="http://purl.org/dc/dcmitype/StillImage" /><dc:title></dc:title></cc:Work></rdf:RDF></metadata><defs
     id="defs22" /><sodipodi:namedview
     pagecolor="#ffffff"
     bordercolor="#666666"
     borderopacity="1"
     objecttolerance="10"
     gridtolerance="10"
     guidetolerance="10"
     inkscape:pageopacity="0"
     inkscape:pageshadow="2"
     inkscape:window-width="1680"
     inkscape:window-height="1005"
     id="namedview20"
     showgrid="false"
     inkscape:zoom="5.680926"
     inkscape:cx="3.6633562"
     inkscape:cy="26.750131"
     inkscape:window-x="0"
     inkscape:window-y="1"
     inkscape:window-maximized="1"
     inkscape:current-layer="svg2" /><path
     d="m 21.467702,9.441838 19.05657,0 C 41.338874,9.441838 42,8.781696 42,7.96611 42,7.150524 41.338874,6.490382 40.524272,6.490382 l -19.05657,0 c -0.815585,0 -1.475728,0.660142 -1.475728,1.475728 0,0.815586 0.661126,1.475728 1.475728,1.475728 z"
     id="path4"
     inkscape:connector-curvature="0"
     style="fill:#ffffff;fill-opacity:1" /><path
     d="m 17.158576,0.818667 -11.6828478,0 C 4.6601424,0.818667 4,1.478809 4,2.294395 l 0,11.342446 c 0,0.815586 0.6601424,1.475729 1.4757282,1.475729 l 11.6828478,0 c 0.815586,0 1.475728,-0.660143 1.475728,-1.475729 l 0,-11.342446 c 0,-0.815586 -0.661126,-1.475728 -1.475728,-1.475728 z m -2.721243,5.512336 -2.024699,3.825088 c -9.83e-4,0 -9.83e-4,9.83e-4 -9.83e-4,9.83e-4 l -0.01574,0.0305 c -0.0069,0.01377 -0.01869,0.02361 -0.02558,0.0364 -0.0364,0.06198 -0.07182,0.125929 -0.118059,0.184958 -0.01869,0.02263 -0.04132,0.03935 -0.06001,0.06001 -0.03345,0.03738 -0.06788,0.07083 -0.104285,0.104285 -0.05805,0.05313 -0.118058,0.101333 -0.182006,0.143637 -0.03837,0.02558 -0.07575,0.05116 -0.117074,0.0728 -0.0728,0.03935 -0.148557,0.06985 -0.226279,0.09543 -0.03837,0.01377 -0.07379,0.02951 -0.113139,0.03935 -0.112155,0.02853 -0.226278,0.04526 -0.341385,0.04624 -0.0069,0 -0.01279,0.002 -0.01869,0.002 -0.14167,0 -0.282356,-0.02755 -0.422058,-0.06985 -0.0423,-0.01279 -0.08067,-0.02951 -0.12101,-0.04624 -0.04919,-0.01968 -0.09937,-0.03148 -0.146589,-0.05608 -0.06887,-0.0364 -0.129864,-0.08166 -0.190861,-0.126913 -0.0098,-0.0069 -0.02066,-0.0098 -0.0305,-0.01673 L 8.5904984,9.409372 C 7.9490485,8.906641 7.837877,7.9789 8.3435599,7.338434 8.8472751,6.697968 9.7740324,6.586796 10.415482,7.089528 l 0.198732,0.156427 1.215016,-2.295249 c 0.380738,-0.720156 1.273061,-0.997593 1.9942,-0.613903 0.720156,0.380737 0.995625,1.274045 0.613903,1.9942 z"
     id="path6"
     inkscape:connector-curvature="0"
     style="fill:#ffffff;fill-opacity:1" /><path
     d="m 40.524272,21.433605 -19.05657,0 c -0.815585,0 -1.475728,0.660143 -1.475728,1.475728 0,0.814602 0.660143,1.475728 1.475728,1.475728 l 19.05657,0 C 41.338874,24.385061 42,23.723935 42,22.909333 42,22.093748 41.338874,21.433605 40.524272,21.433605 Z"
     id="path8"
     inkscape:connector-curvature="0"
     style="fill:#ffffff;fill-opacity:1" /><path
     d="m 17.158576,15.76189 -11.6828478,0 C 4.6601424,15.76189 4,16.422032 4,17.237618 l 0,11.342447 c 0,0.814602 0.6601424,1.475728 1.4757282,1.475728 l 11.6828478,0 c 0.815586,0 1.475728,-0.661126 1.475728,-1.475728 l 0,-11.342447 c 0,-0.814602 -0.661126,-1.475728 -1.475728,-1.475728 z m -2.722226,5.51332 -2.041424,3.85657 c -0.0089,0.01673 -0.02263,0.02656 -0.03148,0.04329 -0.03443,0.06198 -0.06887,0.12101 -0.11314,0.179055 -0.01672,0.02164 -0.03935,0.03837 -0.05804,0.05903 -0.03345,0.03837 -0.06788,0.07182 -0.105268,0.106253 -0.05804,0.05313 -0.119042,0.101333 -0.18299,0.143637 -0.03837,0.02361 -0.07477,0.05116 -0.114124,0.07084 -0.07575,0.04132 -0.154459,0.07182 -0.235132,0.09937 -0.03443,0.01181 -0.06788,0.02656 -0.103301,0.03542 -0.119042,0.02952 -0.240052,0.04919 -0.362045,0.04919 -0.14167,0 -0.282356,-0.02656 -0.422059,-0.06887 -0.04132,-0.01181 -0.07969,-0.02853 -0.120026,-0.04624 -0.04919,-0.01968 -0.100349,-0.0305 -0.147572,-0.05608 -0.07084,-0.0364 -0.132816,-0.08264 -0.194796,-0.129864 -0.0079,-0.0059 -0.01869,-0.0079 -0.02656,-0.01476 l -0.02755,-0.02067 -1.5603366,-1.225838 C 7.9490485,23.850848 7.837877,22.923107 8.3425761,22.282641 8.8462913,21.643159 9.7730485,21.530019 10.414498,22.034718 l 0.198732,0.156428 1.215016,-2.29525 c 0.380738,-0.720155 1.273061,-0.996608 1.994201,-0.613902 0.720155,0.379754 0.995624,1.273061 0.613903,1.993216 z"
     id="path10"
     inkscape:connector-curvature="0"
     style="fill:#ffffff;fill-opacity:1" /><path
     d="m 40.524272,36.376828 -19.05657,0 c -0.815585,0 -1.475728,0.661127 -1.475728,1.475729 0,0.814602 0.660143,1.475728 1.475728,1.475728 l 19.05657,0 C 41.338874,39.328285 42,38.667159 42,37.852557 42,37.037955 41.338874,36.376828 40.524272,36.376828 Z"
     id="path12"
     inkscape:connector-curvature="0"
     style="fill:#ffffff;fill-opacity:1" /><path
     d="m 17.158576,30.706097 -11.6828478,0 C 4.6601424,30.706097 4,31.368207 4,32.181825 L 4,43.524272 C 4,44.33789 4.6601424,45 5.4757282,45 l 11.6828478,0 c 0.815586,0 1.475728,-0.66211 1.475728,-1.475728 l 0,-11.342447 c 0,-0.813618 -0.661126,-1.475728 -1.475728,-1.475728 z"
     id="path14"
     inkscape:connector-curvature="0"
     style="fill:#ffffff;fill-opacity:1" /></svg>