<svg xmlns="http://www.w3.org/2000/svg" viewBox="2365.861 516 54.195 49.246"><defs><style>.a{fill:#9381ff;}</style></defs><g transform="translate(2365.861 516)"><g transform="translate(0 0)"><path class="a" d="M54.224,19.321a10.765,10.765,0,0,1,7.947,3.509c1.647.044,1.821.059,2.618.059.479,0,1.183-.006,2.567-.016-.878,3.149-1.113,3.8-2.239,7.411.02.477.032.955.032,1.438,0,14.685-10.951,31.62-30.976,31.62-9.589,0-14.97-4.838-14.092-4.838A21.561,21.561,0,0,0,33.6,53.748C28.839,53.658,11.5,42.412,21.178,21.355A30.709,30.709,0,0,0,43.62,32.965a11.248,11.248,0,0,1-.283-2.533A11,11,0,0,1,54.224,19.321m13.132,3.554h0M54.224,16.71A13.593,13.593,0,0,0,40.785,30.045,28.358,28.358,0,0,1,23.161,19.706a2.531,2.531,0,0,0-4.3.541c-5.43,11.809-2.816,20.445.333,25.609a25.554,25.554,0,0,0,8.5,8.465A18.938,18.938,0,0,1,20.082,55.9a2.669,2.669,0,0,0-2.651,2.681c0,2.57,3.96,4.389,5.26,4.987a27.514,27.514,0,0,0,11.483,2.392A31.91,31.91,0,0,0,59.091,54.768a35.777,35.777,0,0,0,8.617-23.044c0-.357-.006-.718-.017-1.081l.491-1.568c.633-2.019.929-2.957,1.6-5.375a2.646,2.646,0,0,0,.131-.827,2.583,2.583,0,0,0-2.555-2.611H67.34l-.824.007c-.853.006-1.357.01-1.726.01-.513,0-.754-.007-1.344-.024l-.2-.006a13.367,13.367,0,0,0-9.018-3.539Z" transform="translate(-15.723 -16.71)"/></g></g></svg>