<?xml version="1.0" encoding="UTF-8" standalone="no"?>
<!-- Generator: Adobe Illustrator 17.0.0, SVG Export Plug-In . SVG Version: 6.00 Build 0)  -->

<svg
   xmlns:dc="http://purl.org/dc/elements/1.1/"
   xmlns:cc="http://creativecommons.org/ns#"
   xmlns:rdf="http://www.w3.org/1999/02/22-rdf-syntax-ns#"
   xmlns:svg="http://www.w3.org/2000/svg"
   xmlns="http://www.w3.org/2000/svg"
   xmlns:sodipodi="http://sodipodi.sourceforge.net/DTD/sodipodi-0.dtd"
   xmlns:inkscape="http://www.inkscape.org/namespaces/inkscape"
   version="1.1"
   x="0px"
   y="0px"
   width="58"
   height="34"
   viewBox="0 0 58 34"
   enable-background="new 0 0 96 96"
   xml:space="preserve"
   id="svg2"
   inkscape:version="0.91 r13725"
   sodipodi:docname="weather.svg"><metadata
     id="metadata14"><rdf:RDF><cc:Work
         rdf:about=""><dc:format>image/svg+xml</dc:format><dc:type
           rdf:resource="http://purl.org/dc/dcmitype/StillImage" /><dc:title></dc:title></cc:Work></rdf:RDF></metadata><defs
     id="defs12" /><sodipodi:namedview
     pagecolor="#ffffff"
     bordercolor="#666666"
     borderopacity="1"
     objecttolerance="10"
     gridtolerance="10"
     guidetolerance="10"
     inkscape:pageopacity="0"
     inkscape:pageshadow="2"
     inkscape:window-width="1393"
     inkscape:window-height="843"
     id="namedview10"
     showgrid="false"
     inkscape:zoom="2.4583333"
     inkscape:cx="-5.8983051"
     inkscape:cy="48"
     inkscape:window-x="0"
     inkscape:window-y="0"
     inkscape:window-maximized="0"
     inkscape:current-layer="svg2" /><g
     id="Base"
     display="none"
     style="display:none"
     transform="translate(0,-62)" /><g
     id="Dibujo"
     style="fill:#ffffff;fill-opacity:1"
     transform="translate(-19,-28)"><g
       id="g6"
       style="fill:#ffffff;fill-opacity:1"><path
         d="m 66,40 c -0.507,0 -1.112,0.079 -1.688,0.184 C 62.218,33.012 55.663,28 48,28 40.336,28 33.782,33.012 31.688,40.184 31.112,40.079 30.507,40 30,40 c -6.065,0 -11,4.935 -11,11 0,6.065 4.935,11 11,11 l 36,0 C 72.065,62 77,57.065 77,51 77,44.935 72.065,40 66,40 Z m 0,18 -36,0 c -3.86,0 -7,-3.141 -7,-7 0,-3.859 3.14,-7 7,-7 0.277,0 0.723,0.068 1.194,0.162 l 0,1.838 c 0,1.104 0.896,2 2,2 1.104,0 2,-0.896 2,-2 l 0,-3.226 C 36.27,36.524 41.632,32 48,32 c 6.371,0 11.735,4.529 12.808,10.784 l 0,3.216 c 0,1.104 0.896,2 2,2 1.105,0 2,-0.896 2,-2 l 0,-1.837 C 65.278,44.069 65.726,44 66,44 c 3.859,0 7,3.141 7,7 0,3.859 -3.141,7 -7,7 z"
         id="path8"
         style="fill:#ffffff;fill-opacity:1"
         inkscape:connector-curvature="0" /></g></g></svg>