<svg xmlns="http://www.w3.org/2000/svg" viewBox="3279 516 68.956 49"><defs><style>.a{fill:#9381ff;}</style></defs><g transform="translate(3268.601 495.087)"><g transform="translate(10.399 20.913)"><path class="a" d="M71.6,47.573c-.554-.154-.884-.515-1.4-.584a11.992,11.992,0,0,0-2.768-10.152c-2.892-3.516-7.209-4.785-11.889-3.671a19.008,19.008,0,0,0-4.487-7.7,15.7,15.7,0,0,0-12.3-4.54A16.568,16.568,0,0,0,23.4,33.439a21.013,21.013,0,0,0-.654,5.866A13.759,13.759,0,0,0,13.3,44.917a15.864,15.864,0,0,0,.018,18.32c3.6,5.114,9.119,6.166,12.962,6.506,2.609.237,20.039.181,34.2.093l1.4-.006c1.785.006,3.808.006,5.793-.148C73.059,69.259,79,65.825,79.337,59.269,79.623,53.706,76.441,48.9,71.6,47.573Zm1.773,12.748c-.693,3.023-3.424,4.043-6.085,4.474-3.72.6-7.67.274-11.434.291q-5.31.03-10.626.044c-10.658.025-17.2-.023-18.512-.142-4.668-.417-7.589-1.8-9.488-4.5A11.228,11.228,0,0,1,17.2,47.694a9.406,9.406,0,0,1,8.065-3.808h2.618l-.241-2.613a18.607,18.607,0,0,1,.381-6.6,11.861,11.861,0,0,1,6.394-7.833A12.03,12.03,0,0,1,38.941,25.7c10.348-.4,12.3,9.413,12.5,10.621l.447,2.568a11.229,11.229,0,0,1,7.284-1.243c5.127,1.056,7.263,5.567,6.123,10.4A9.332,9.332,0,0,1,63.863,51.2a15.7,15.7,0,0,1,4.3.4C72.464,52.64,74.419,55.762,73.374,60.322Z" transform="translate(-10.399 -20.913)"/></g></g></svg>