<svg xmlns="http://www.w3.org/2000/svg" viewBox="1863 -1891 58 58"><defs><style>.a{fill:#9381ff;}</style></defs><g transform="translate(1844 -1919)"><path class="a" d="M48,78a2,2,0,0,0-2,2v4a2,2,0,0,0,4,0V80A2,2,0,0,0,48,78Zm-9-6a2,2,0,0,0-2,2v4a2,2,0,0,0,4,0V74A2,2,0,0,0,39,72Zm18,0a2,2,0,0,0-2,2v4a2,2,0,0,0,4,0V74A2,2,0,0,0,57,72Zm9-32a9.935,9.935,0,0,0-1.689.184,17.011,17.011,0,0,0-32.623,0A9.924,9.924,0,0,0,30,40a11,11,0,0,0,0,22h7v4a2,2,0,0,0,4,0V62H55v4a2,2,0,0,0,4,0V62h7a11,11,0,0,0,0-22Zm0,18H30a7,7,0,0,1,0-14,7.09,7.09,0,0,1,1.193.162V46a2,2,0,0,0,4,0V42.781a13,13,0,0,1,25.614,0V46a2,2,0,0,0,4,0V44.163A7.149,7.149,0,0,1,66,44a7,7,0,0,1,0,14ZM48,66a2,2,0,0,0-2,2v4a2,2,0,0,0,4,0V68A2,2,0,0,0,48,66Z"/></g></svg>