<svg xmlns="http://www.w3.org/2000/svg" viewBox="1931 -1891 58 48"><defs><style>.a{fill:#9381ff;}</style></defs><g transform="translate(1912 -1919)"><path class="a" d="M66,40a9.924,9.924,0,0,0-1.688.184,17.011,17.011,0,0,0-32.623,0A9.945,9.945,0,0,0,30,40a11,11,0,0,0,0,22,2,2,0,0,0,0-4,7,7,0,0,1,0-14,7.09,7.09,0,0,1,1.193.162V46a2,2,0,0,0,4,0V42.779a13,13,0,0,1,25.614,0V46a2,2,0,0,0,4,0V44.162A7.09,7.09,0,0,1,66,44a7,7,0,0,1,0,14,2,2,0,0,0,0,4,11,11,0,0,0,0-22Z"/><path class="a" d="M45.732,62.464a2,2,0,1,0-3.464,2l1,1.732a2,2,0,1,0,3.464-2Z"/><path class="a" d="M40.732,53.8a2,2,0,1,0-3.464,2l1,1.732a2,2,0,1,0,3.464-2Z"/><path class="a" d="M43,58.269a2,2,0,0,0,2.732-.733l1-1.732a2,2,0,1,0-3.464-2l-1,1.732A2,2,0,0,0,43,58.269Z"/><path class="a" d="M41,61.731a2,2,0,0,0-2.732.733l-1,1.732a2,2,0,1,0,3.464,2l1-1.732A2,2,0,0,0,41,61.731Z"/><path class="a" d="M40,60a2,2,0,0,0-2-2H36a2,2,0,0,0,0,4h2A2,2,0,0,0,40,60Z"/><path class="a" d="M50,60a2,2,0,0,0-2-2H46a2,2,0,0,0,0,4h2A2,2,0,0,0,50,60Z"/><path class="a" d="M60.732,71.268a2,2,0,1,0-3.464,2l1,1.732a2,2,0,1,0,3.464-2Z"/><path class="a" d="M55.732,62.607a2,2,0,1,0-3.464,2l1,1.732a2,2,0,1,0,3.464-2Z"/><path class="a" d="M58,67.072a2,2,0,0,0,2.732-.733l1-1.732a2,2,0,1,0-3.464-2l-1,1.732A2,2,0,0,0,58,67.072Z"/><path class="a" d="M56,70.535a2,2,0,0,0-2.732.732l-1,1.732a2,2,0,1,0,3.464,2l1-1.732A2,2,0,0,0,56,70.535Z"/><path class="a" d="M55,68.8a2,2,0,0,0-2-2H51a2,2,0,0,0,0,4h2A2,2,0,0,0,55,68.8Z"/><path class="a" d="M63,66.8H61a2,2,0,0,0,0,4h2a2,2,0,0,0,0-4Z"/></g></svg>