<svg xmlns="http://www.w3.org/2000/svg" viewBox="2067 -1891 52 52"><defs><style>.a{fill:#9381ff;}</style></defs><g transform="translate(2045 -1913)"><path class="a" d="M62.142,35.858a1.99,1.99,0,0,0,1.414-.586l2.829-2.829a2,2,0,1,0-2.828-2.828l-2.829,2.829a2,2,0,0,0,1.414,3.414ZM30,48a2,2,0,0,0-2-2H24a2,2,0,0,0,0,4h4A2,2,0,0,0,30,48Zm2.444,12.728-2.829,2.829a2,2,0,1,0,2.828,2.828l2.829-2.829a2,2,0,0,0-2.828-2.828Zm0-25.456a2,2,0,0,0,2.828-2.828l-2.829-2.829a2,2,0,0,0-2.828,2.828ZM48,30a2,2,0,0,0,2-2V24a2,2,0,0,0-4,0v4A2,2,0,0,0,48,30ZM72,46H68a2,2,0,0,0,0,4h4a2,2,0,0,0,0-4ZM63.556,60.728a2,2,0,1,0-2.828,2.828l2.829,2.829a2,2,0,1,0,2.828-2.828ZM48,66a2,2,0,0,0-2,2v4a2,2,0,0,0,4,0V68A2,2,0,0,0,48,66Zm0-32A14,14,0,1,0,62,48,14.015,14.015,0,0,0,48,34Zm0,24A10,10,0,1,1,58,48,10.011,10.011,0,0,1,48,58Z"/></g></svg>