<svg xmlns="http://www.w3.org/2000/svg" viewBox="2265 -1891 64 34"><defs><style>.a{fill:#9381ff;}</style></defs><g transform="translate(2249 -1925)"><path class="a" d="M39,38H51a2,2,0,0,0,0-4H39a2,2,0,0,0,0,4Z"/><path class="a" d="M27,44H51a2,2,0,0,0,0-4H27a2,2,0,0,0,0,4Z"/><path class="a" d="M21,50H45a2,2,0,0,0,0-4H21a2,2,0,1,0,0,4Z"/><path class="a" d="M80,54a2,2,0,0,0-2-2H18a2,2,0,0,0,0,4H78A2,2,0,0,0,80,54Z"/><path class="a" d="M78,58H21a2,2,0,0,0,0,4H78a2,2,0,0,0,0-4Z"/><path class="a" d="M39,64H27a2,2,0,1,0,0,4H39a2,2,0,0,0,0-4Z"/><path class="a" d="M58,44h8a2,2,0,0,0,0-4H58a2,2,0,0,0,0,4Z"/><path class="a" d="M49,48a2,2,0,0,0,2,2H72a2,2,0,0,0,0-4H51A2,2,0,0,0,49,48Z"/><path class="a" d="M72,64H45a2,2,0,0,0,0,4H72a2,2,0,1,0,0-4Z"/></g></svg>