<?xml version="1.0" encoding="utf-8"?>
<!-- Generator: Adobe Illustrator 17.0.0, SVG Export Plug-In . SVG Version: 6.00 Build 0)  -->
<!DOCTYPE svg PUBLIC "-//W3C//DTD SVG 1.1//EN" "http://www.w3.org/Graphics/SVG/1.1/DTD/svg11.dtd">
<svg version="1.1" xmlns="http://www.w3.org/2000/svg" xmlns:xlink="http://www.w3.org/1999/xlink" x="0px" y="0px" width="96px"
	 height="96px" viewBox="0 0 96 96" enable-background="new 0 0 96 96" xml:space="preserve">
<g id="Base" display="none">
</g>
<g id="Dibujo">
	<g>
		<path fill="#CCD" d="M57,24c1.104,0,2-0.896,2-2v-4c0-1.104-0.896-2-2-2c-1.105,0-2,0.896-2,2v4C55,23.104,55.895,24,57,24z"/>
		<path fill="#CCD" d="M81,40h-4c-1.105,0-2,0.896-2,2s0.895,2,2,2h4c1.104,0,2-0.896,2-2S82.104,40,81,40z"/>
		<path fill="#CCD" d="M71.143,29.857c0.512,0,1.023-0.195,1.414-0.586l2.828-2.828c0.781-0.781,0.781-2.047,0-2.828
			c-0.781-0.781-2.047-0.781-2.828,0l-2.828,2.828c-0.781,0.781-0.781,2.047,0,2.828C70.119,29.662,70.631,29.857,71.143,29.857z"/>
		<path fill="#CCD" d="M41.443,29.271c0.391,0.391,0.902,0.586,1.414,0.586s1.024-0.195,1.414-0.586c0.781-0.781,0.781-2.047,0-2.828
			l-2.828-2.828c-0.781-0.781-2.047-0.781-2.828,0c-0.781,0.781-0.781,2.047,0,2.828L41.443,29.271z"/>
		<path fill="#CCD" d="M21,44h30c1.104,0,2-0.896,2-2s-0.896-2-2-2H21c-1.105,0-2,0.896-2,2S19.895,44,21,44z"/>
		<path fill="#CCD" d="M14.999,50H39c1.104,0,2-0.896,2-2s-0.896-2-2-2H14.999c-1.105,0-2,0.896-2,2S13.894,50,14.999,50z"/>
		<path fill="#CCD" d="M72,52H12c-1.105,0-2,0.896-2,2s0.895,2,2,2h60c1.104,0,2-0.896,2-2S73.104,52,72,52z"/>
		<path fill="#CCD" d="M72,58H15c-1.105,0-2,0.896-2,2s0.895,2,2,2h57c1.104,0,2-0.896,2-2S73.104,58,72,58z"/>
		<path fill="#CCD" d="M33,64l-12-0.001c-1.105,0-2,0.896-2,2s0.895,2,2,2L33,68c1.104,0,2-0.896,2-2S34.104,64,33,64z"/>
		<path fill="#CCD" d="M66,63.999L39,64c-1.105,0-2,0.896-2,2s0.895,2,2,2l27-0.001c1.104,0,2-0.896,2-2S67.104,63.999,66,63.999z"/>
		<path fill="#CCD" d="M33,38h13.603c0.714,0,1.373-0.38,1.731-0.997C50.121,33.917,53.442,32,57,32c5.514,0,10,4.486,10,10
			c0,1.393-0.29,2.767-0.827,4H45c-1.105,0-2,0.896-2,2s0.895,2,2,2h22.394c0.681,0,1.314-0.346,1.683-0.919
			c0.018-0.027,0.053-0.083,0.069-0.112C70.358,46.857,71,44.448,71,42c0-7.72-6.28-14-14-14c-4.584,0-8.887,2.272-11.491,6H33
			c-1.105,0-2,0.896-2,2S31.895,38,33,38z"/>
	</g>
</g>
</svg>
