<svg xmlns="http://www.w3.org/2000/svg" viewBox="2339 -1891 73 52"><defs><style>.a{fill:#9381ff;}</style></defs><g transform="translate(2329 -1907)"><path class="a" d="M57,24a2,2,0,0,0,2-2V18a2,2,0,0,0-4,0v4A2,2,0,0,0,57,24Z"/><path class="a" d="M81,40H77a2,2,0,0,0,0,4h4a2,2,0,0,0,0-4Z"/><path class="a" d="M71.143,29.857a1.992,1.992,0,0,0,1.414-.586l2.828-2.828a2,2,0,1,0-2.828-2.828l-2.828,2.828a2,2,0,0,0,1.414,3.414Z"/><path class="a" d="M41.443,29.271a2,2,0,0,0,2.828-2.828l-2.828-2.828a2,2,0,1,0-2.828,2.828Z"/><path class="a" d="M21,44H51a2,2,0,0,0,0-4H21a2,2,0,0,0,0,4Z"/><path class="a" d="M15,50H39a2,2,0,0,0,0-4H15a2,2,0,0,0,0,4Z"/><path class="a" d="M72,52H12a2,2,0,0,0,0,4H72a2,2,0,0,0,0-4Z"/><path class="a" d="M72,58H15a2,2,0,0,0,0,4H72a2,2,0,0,0,0-4Z"/><path class="a" d="M33,64H21a2,2,0,0,0,0,4H33a2,2,0,0,0,0-4Z"/><path class="a" d="M66,64H39a2,2,0,0,0,0,4H66a2,2,0,1,0,0-4Z"/><path class="a" d="M33,38H46.6a2,2,0,0,0,1.731-1,10.006,10.006,0,0,1,17.839,9H45a2,2,0,0,0,0,4H67.394a2,2,0,0,0,1.683-.919c.018-.027.053-.083.069-.112A14,14,0,0,0,45.509,34H33a2,2,0,0,0,0,4Z"/></g></svg>