<svg xmlns="http://www.w3.org/2000/svg" viewBox="2576 -1891 66.999 52"><defs><style>.a{fill:#9381ff;}</style></defs><g transform="translate(2556.999 -1901)"><path class="a" d="M72.556,42.187A14,14,0,0,0,48.5,28.021c-.168,0-.334-.021-.5-.021A16.918,16.918,0,0,0,31.69,40.184,9.945,9.945,0,0,0,30,40a11,11,0,0,0,0,22H66a10.986,10.986,0,0,0,6.555-19.813ZM60,26a9.987,9.987,0,0,1,8.964,14.417A10.948,10.948,0,0,0,66,40a9.957,9.957,0,0,0-1.69.184,16.88,16.88,0,0,0-11.21-11.4A10.007,10.007,0,0,1,60,26Zm6,32H30a7,7,0,0,1,0-14,7.09,7.09,0,0,1,1.193.162V46a2,2,0,1,0,4,0V42.781a13,13,0,0,1,25.614.005V46a2,2,0,0,0,4,0V44.163A7.162,7.162,0,0,1,66,44a7,7,0,0,1,0,14Z"/><path class="a" d="M60,18a2,2,0,0,0,2-2V12a2,2,0,0,0-4,0v4A2,2,0,0,0,60,18Z"/><path class="a" d="M84,34H80a2,2,0,0,0,0,4h4a2,2,0,0,0,0-4Z"/><path class="a" d="M74.143,23.857a1.992,1.992,0,0,0,1.414-.586l2.828-2.828a2,2,0,1,0-2.828-2.828l-2.828,2.828a2,2,0,0,0,1.414,3.414Z"/><path class="a" d="M44.443,23.271a2,2,0,0,0,2.828-2.828l-2.828-2.828a2,2,0,1,0-2.828,2.828Z"/></g></svg>