<svg xmlns="http://www.w3.org/2000/svg" viewBox="2730 -1891 58 55"><defs><style>.a{fill:#9381ff;}</style></defs><g transform="translate(2711 -1913)"><path class="a" d="M66,34a9.935,9.935,0,0,0-1.689.184,17.011,17.011,0,0,0-32.623,0A9.924,9.924,0,0,0,30,34a11,11,0,0,0,0,22,2,2,0,0,0,0-4,7,7,0,0,1,0-14,7.1,7.1,0,0,1,1.194.162V40a2,2,0,1,0,4,0V36.776a13,13,0,0,1,25.614.011V40a2,2,0,0,0,4,0V38.162A6.973,6.973,0,1,1,66,52a2,2,0,0,0,0,4,11,11,0,0,0,0-22Z"/><path class="a" d="M39.6,52.8a2.073,2.073,0,0,0-3.2,0C35.6,53.863,33,57.525,33,60a4.784,4.784,0,0,0,5,5,4.784,4.784,0,0,0,5-5C43,57.525,40.4,53.863,39.6,52.8Z"/><path class="a" d="M56.4,52.8C55.6,53.863,53,57.525,53,60a5,5,0,0,0,10,0c0-2.475-2.6-6.137-3.4-7.2A2.074,2.074,0,0,0,56.4,52.8Z"/><path class="a" d="M46.4,64.8C45.6,65.863,43,69.525,43,72a5,5,0,0,0,10,0c0-2.475-2.6-6.137-3.4-7.2A2.074,2.074,0,0,0,46.4,64.8Z"/></g></svg>