<?xml version="1.0" encoding="utf-8"?>
<!-- Generator: Adobe Illustrator 17.0.0, SVG Export Plug-In . SVG Version: 6.00 Build 0)  -->
<!DOCTYPE svg PUBLIC "-//W3C//DTD SVG 1.1//EN" "http://www.w3.org/Graphics/SVG/1.1/DTD/svg11.dtd">
<svg version="1.1" xmlns="http://www.w3.org/2000/svg" xmlns:xlink="http://www.w3.org/1999/xlink" x="0px" y="0px" width="96px"
	 height="96px" viewBox="0 0 96 96" enable-background="new 0 0 96 96" xml:space="preserve">
<g id="Base" display="none">
</g>
<g id="Dibujo">
	<g>
		<path fill="#CCD" d="M66,34c-0.508,0-1.112,0.079-1.689,0.184C62.218,27.012,55.663,22,48,22c-7.664,0-14.219,5.012-16.312,12.184
			C31.112,34.079,30.507,34,30,34c-6.065,0-11,4.935-11,11s4.935,11,11,11c1.104,0,2-0.896,2-2s-0.896-2-2-2c-3.859,0-7-3.141-7-7
			s3.141-7,7-7c0.277,0,0.724,0.068,1.194,0.162V40c0,1.104,0.896,2,2,2s2-0.896,2-2v-3.224C36.269,30.525,41.631,26,48,26
			c6.372,0,11.736,4.53,12.808,10.787V40c0,1.104,0.896,2,2,2s2-0.896,2-2v-1.838C65.277,38.068,65.723,38,66,38
			c3.859,0,7,3.141,7,7s-3.141,7-7,7c-1.105,0-2,0.896-2,2s0.895,2,2,2c6.065,0,11-4.935,11-11S72.065,34,66,34z"/>
		<path fill="#CCD" d="M39.6,52.8c-0.754-1.006-2.445-1.006-3.199,0C35.602,53.863,33,57.525,33,60c0,2.944,2.056,5,5,5c2.944,0,5-2.056,5-5
			C43,57.525,40.397,53.863,39.6,52.8z"/>
		<path fill="#CCD" d="M56.4,52.8C55.602,53.863,53,57.525,53,60c0,2.944,2.056,5,5,5c2.944,0,5-2.056,5-5c0-2.475-2.603-6.137-3.4-7.2
			C58.846,51.794,57.154,51.794,56.4,52.8z"/>
		<path fill="#CCD" d="M46.4,64.8C45.602,65.863,43,69.525,43,72c0,2.944,2.056,5,5,5c2.944,0,5-2.056,5-5c0-2.475-2.603-6.137-3.4-7.2
			C48.846,63.794,47.154,63.794,46.4,64.8z"/>
	</g>
</g>
</svg>
