<svg xmlns="http://www.w3.org/2000/svg" viewBox="2996 -1891 58 52"><defs><style>.a{fill:#9381ff;}</style></defs><g transform="translate(2977 -1919)"><path class="a" d="M66,40a9.935,9.935,0,0,0-1.689.184,17.011,17.011,0,0,0-32.623,0A9.924,9.924,0,0,0,30,40a11,11,0,0,0,0,22H41.263l-3.927,5.891A2,2,0,0,0,39,71h2.263l-3.927,5.891a2,2,0,1,0,3.328,2.218l6-9A2,2,0,0,0,45,67H42.737l3.333-5h5.192l-1.927,2.891A2,2,0,0,0,51,68h2.263l-1.927,2.891a2,2,0,1,0,3.328,2.218l4-6A2,2,0,0,0,57,64H54.737l1.333-2H66a11,11,0,0,0,0-22Zm0,18H30a7,7,0,0,1,0-14,7.09,7.09,0,0,1,1.193.162V46a2,2,0,0,0,4,0V42.781a13,13,0,0,1,25.614,0V46a2,2,0,0,0,4,0V44.163A7.149,7.149,0,0,1,66,44a7,7,0,0,1,0,14Z"/></g></svg>